<mxfile host="app.diagrams.net" modified="2021-11-01T14:49:45.961Z" agent="5.0 (Windows NT 10.0; Win64; x64) AppleWebKit/537.36 (KHTML, like Gecko) Chrome/94.0.4606.81 Safari/537.36" etag="ykNxcHiuETGgq-4VM4-z" version="15.6.3" type="github">
  <diagram id="C5RBs43oDa-KdzZeNtuy" name="Page-1">
    <mxGraphModel dx="2062" dy="2234" grid="1" gridSize="10" guides="1" tooltips="1" connect="1" arrows="1" fold="1" page="1" pageScale="1" pageWidth="827" pageHeight="1169" math="0" shadow="0">
      <root>
        <mxCell id="WIyWlLk6GJQsqaUBKTNV-0" />
        <mxCell id="WIyWlLk6GJQsqaUBKTNV-1" parent="WIyWlLk6GJQsqaUBKTNV-0" />
        <mxCell id="m2FPMmRLhkhOaJxDhKmB-18" value="" style="edgeStyle=orthogonalEdgeStyle;rounded=0;orthogonalLoop=1;jettySize=auto;html=1;" edge="1" parent="WIyWlLk6GJQsqaUBKTNV-1" source="WIyWlLk6GJQsqaUBKTNV-3" target="m2FPMmRLhkhOaJxDhKmB-13">
          <mxGeometry relative="1" as="geometry" />
        </mxCell>
        <mxCell id="WIyWlLk6GJQsqaUBKTNV-3" value="Excel-Mitarbeiter" style="rounded=1;whiteSpace=wrap;html=1;fontSize=12;glass=0;strokeWidth=1;shadow=0;" parent="WIyWlLk6GJQsqaUBKTNV-1" vertex="1">
          <mxGeometry x="210" y="20" width="120" height="40" as="geometry" />
        </mxCell>
        <mxCell id="m2FPMmRLhkhOaJxDhKmB-10" value="" style="shape=image;html=1;verticalAlign=top;verticalLabelPosition=bottom;labelBackgroundColor=#ffffff;imageAspect=0;aspect=fixed;image=https://cdn0.iconfinder.com/data/icons/logos-brands/24/logo_brand_brands_logos_excel-128.png" vertex="1" parent="WIyWlLk6GJQsqaUBKTNV-1">
          <mxGeometry x="1020" y="6.5" width="128" height="128" as="geometry" />
        </mxCell>
        <mxCell id="m2FPMmRLhkhOaJxDhKmB-11" value="" style="shape=image;html=1;verticalAlign=top;verticalLabelPosition=bottom;labelBackgroundColor=#ffffff;imageAspect=0;aspect=fixed;image=https://cdn0.iconfinder.com/data/icons/logos-brands/24/logo_brand_brands_logos_excel-128.png" vertex="1" parent="WIyWlLk6GJQsqaUBKTNV-1">
          <mxGeometry x="150" y="-10" width="70" height="70" as="geometry" />
        </mxCell>
        <mxCell id="m2FPMmRLhkhOaJxDhKmB-12" value="Sap-Cat 2" style="rounded=1;whiteSpace=wrap;html=1;fontSize=12;glass=0;strokeWidth=1;shadow=0;" vertex="1" parent="WIyWlLk6GJQsqaUBKTNV-1">
          <mxGeometry x="210" y="90" width="120" height="40" as="geometry" />
        </mxCell>
        <mxCell id="m2FPMmRLhkhOaJxDhKmB-17" value="" style="edgeStyle=orthogonalEdgeStyle;rounded=0;orthogonalLoop=1;jettySize=auto;html=1;" edge="1" parent="WIyWlLk6GJQsqaUBKTNV-1" source="m2FPMmRLhkhOaJxDhKmB-13" target="m2FPMmRLhkhOaJxDhKmB-16">
          <mxGeometry relative="1" as="geometry" />
        </mxCell>
        <mxCell id="m2FPMmRLhkhOaJxDhKmB-13" value="Erfassungsprofil" style="rounded=1;fillColor=#F1F2F4;strokeColor=none;html=1;fontColor=#596780;align=left;fontSize=12;spacingLeft=10;sketch=0;" vertex="1" parent="WIyWlLk6GJQsqaUBKTNV-1">
          <mxGeometry x="200" y="150" width="140" height="33" as="geometry" />
        </mxCell>
        <mxCell id="m2FPMmRLhkhOaJxDhKmB-14" value="" style="shape=triangle;direction=south;fillColor=#596780;strokeColor=none;html=1;sketch=0;" vertex="1" parent="m2FPMmRLhkhOaJxDhKmB-13">
          <mxGeometry x="1" y="0.5" width="12" height="6" relative="1" as="geometry">
            <mxPoint x="-20" y="-3" as="offset" />
          </mxGeometry>
        </mxCell>
        <mxCell id="m2FPMmRLhkhOaJxDhKmB-81" value="" style="edgeStyle=orthogonalEdgeStyle;rounded=0;orthogonalLoop=1;jettySize=auto;html=1;" edge="1" parent="WIyWlLk6GJQsqaUBKTNV-1" source="m2FPMmRLhkhOaJxDhKmB-16" target="m2FPMmRLhkhOaJxDhKmB-19">
          <mxGeometry relative="1" as="geometry" />
        </mxCell>
        <mxCell id="m2FPMmRLhkhOaJxDhKmB-16" value="Personalnummer" style="rounded=1;whiteSpace=wrap;html=1;fontSize=12;glass=0;strokeWidth=1;shadow=0;" vertex="1" parent="WIyWlLk6GJQsqaUBKTNV-1">
          <mxGeometry x="210" y="210" width="120" height="40" as="geometry" />
        </mxCell>
        <mxCell id="m2FPMmRLhkhOaJxDhKmB-27" style="edgeStyle=orthogonalEdgeStyle;rounded=0;orthogonalLoop=1;jettySize=auto;html=1;" edge="1" parent="WIyWlLk6GJQsqaUBKTNV-1" source="m2FPMmRLhkhOaJxDhKmB-19" target="m2FPMmRLhkhOaJxDhKmB-21">
          <mxGeometry relative="1" as="geometry" />
        </mxCell>
        <mxCell id="m2FPMmRLhkhOaJxDhKmB-19" value="Sap aktueller&amp;nbsp;&lt;br&gt;Monat" style="rhombus;whiteSpace=wrap;html=1;shadow=0;fontFamily=Helvetica;fontSize=12;align=center;strokeWidth=1;spacing=6;spacingTop=-4;" vertex="1" parent="WIyWlLk6GJQsqaUBKTNV-1">
          <mxGeometry x="220" y="290" width="100" height="80" as="geometry" />
        </mxCell>
        <mxCell id="m2FPMmRLhkhOaJxDhKmB-20" value="SAP- Speicherung" style="rounded=1;whiteSpace=wrap;html=1;fontSize=12;glass=0;strokeWidth=1;shadow=0;" vertex="1" parent="WIyWlLk6GJQsqaUBKTNV-1">
          <mxGeometry x="720" y="610" width="120" height="40" as="geometry" />
        </mxCell>
        <mxCell id="m2FPMmRLhkhOaJxDhKmB-77" style="edgeStyle=orthogonalEdgeStyle;rounded=0;orthogonalLoop=1;jettySize=auto;html=1;" edge="1" parent="WIyWlLk6GJQsqaUBKTNV-1" source="m2FPMmRLhkhOaJxDhKmB-21" target="m2FPMmRLhkhOaJxDhKmB-75">
          <mxGeometry relative="1" as="geometry" />
        </mxCell>
        <mxCell id="m2FPMmRLhkhOaJxDhKmB-82" style="edgeStyle=orthogonalEdgeStyle;rounded=0;orthogonalLoop=1;jettySize=auto;html=1;entryX=0.5;entryY=0;entryDx=0;entryDy=0;" edge="1" parent="WIyWlLk6GJQsqaUBKTNV-1" source="m2FPMmRLhkhOaJxDhKmB-21" target="m2FPMmRLhkhOaJxDhKmB-25">
          <mxGeometry relative="1" as="geometry" />
        </mxCell>
        <mxCell id="m2FPMmRLhkhOaJxDhKmB-21" value="Projekt a" style="rounded=1;whiteSpace=wrap;html=1;fontSize=12;glass=0;strokeWidth=1;shadow=0;" vertex="1" parent="WIyWlLk6GJQsqaUBKTNV-1">
          <mxGeometry x="390" y="310" width="120" height="30" as="geometry" />
        </mxCell>
        <mxCell id="m2FPMmRLhkhOaJxDhKmB-78" style="edgeStyle=orthogonalEdgeStyle;rounded=0;orthogonalLoop=1;jettySize=auto;html=1;" edge="1" parent="WIyWlLk6GJQsqaUBKTNV-1" source="m2FPMmRLhkhOaJxDhKmB-22" target="m2FPMmRLhkhOaJxDhKmB-75">
          <mxGeometry relative="1" as="geometry" />
        </mxCell>
        <mxCell id="m2FPMmRLhkhOaJxDhKmB-87" value="" style="edgeStyle=orthogonalEdgeStyle;rounded=0;orthogonalLoop=1;jettySize=auto;html=1;" edge="1" parent="WIyWlLk6GJQsqaUBKTNV-1" source="m2FPMmRLhkhOaJxDhKmB-22" target="m2FPMmRLhkhOaJxDhKmB-24">
          <mxGeometry relative="1" as="geometry" />
        </mxCell>
        <mxCell id="m2FPMmRLhkhOaJxDhKmB-22" value="Projekt b" style="rounded=1;whiteSpace=wrap;html=1;fontSize=12;glass=0;strokeWidth=1;shadow=0;" vertex="1" parent="WIyWlLk6GJQsqaUBKTNV-1">
          <mxGeometry x="530" y="310" width="120" height="30" as="geometry" />
        </mxCell>
        <mxCell id="m2FPMmRLhkhOaJxDhKmB-79" style="edgeStyle=orthogonalEdgeStyle;rounded=0;orthogonalLoop=1;jettySize=auto;html=1;" edge="1" parent="WIyWlLk6GJQsqaUBKTNV-1" source="m2FPMmRLhkhOaJxDhKmB-23" target="m2FPMmRLhkhOaJxDhKmB-75">
          <mxGeometry relative="1" as="geometry" />
        </mxCell>
        <mxCell id="m2FPMmRLhkhOaJxDhKmB-88" value="" style="edgeStyle=orthogonalEdgeStyle;rounded=0;orthogonalLoop=1;jettySize=auto;html=1;" edge="1" parent="WIyWlLk6GJQsqaUBKTNV-1" source="m2FPMmRLhkhOaJxDhKmB-23" target="m2FPMmRLhkhOaJxDhKmB-26">
          <mxGeometry relative="1" as="geometry" />
        </mxCell>
        <mxCell id="m2FPMmRLhkhOaJxDhKmB-23" value="Projekt c" style="rounded=1;whiteSpace=wrap;html=1;fontSize=12;glass=0;strokeWidth=1;shadow=0;" vertex="1" parent="WIyWlLk6GJQsqaUBKTNV-1">
          <mxGeometry x="670" y="310" width="120" height="30" as="geometry" />
        </mxCell>
        <mxCell id="m2FPMmRLhkhOaJxDhKmB-24" value="Stunden b" style="rounded=1;whiteSpace=wrap;html=1;fontSize=12;glass=0;strokeWidth=1;shadow=0;" vertex="1" parent="WIyWlLk6GJQsqaUBKTNV-1">
          <mxGeometry x="530" y="370" width="120" height="40" as="geometry" />
        </mxCell>
        <mxCell id="m2FPMmRLhkhOaJxDhKmB-90" style="edgeStyle=orthogonalEdgeStyle;rounded=0;orthogonalLoop=1;jettySize=auto;html=1;entryX=0.5;entryY=0;entryDx=0;entryDy=0;" edge="1" parent="WIyWlLk6GJQsqaUBKTNV-1" source="m2FPMmRLhkhOaJxDhKmB-25" target="m2FPMmRLhkhOaJxDhKmB-89">
          <mxGeometry relative="1" as="geometry" />
        </mxCell>
        <mxCell id="m2FPMmRLhkhOaJxDhKmB-25" value="Stunden a" style="rounded=1;whiteSpace=wrap;html=1;fontSize=12;glass=0;strokeWidth=1;shadow=0;" vertex="1" parent="WIyWlLk6GJQsqaUBKTNV-1">
          <mxGeometry x="390" y="370" width="120" height="40" as="geometry" />
        </mxCell>
        <mxCell id="m2FPMmRLhkhOaJxDhKmB-26" value="Stunden c" style="rounded=1;whiteSpace=wrap;html=1;fontSize=12;glass=0;strokeWidth=1;shadow=0;" vertex="1" parent="WIyWlLk6GJQsqaUBKTNV-1">
          <mxGeometry x="670" y="370" width="130" height="40" as="geometry" />
        </mxCell>
        <mxCell id="m2FPMmRLhkhOaJxDhKmB-72" value="" style="outlineConnect=0;dashed=0;verticalLabelPosition=bottom;verticalAlign=top;align=center;html=1;shape=mxgraph.aws3.corporate_data_center;fillColor=#7D7C7C;gradientColor=none;" vertex="1" parent="WIyWlLk6GJQsqaUBKTNV-1">
          <mxGeometry x="545" y="36.5" width="100" height="120" as="geometry" />
        </mxCell>
        <mxCell id="m2FPMmRLhkhOaJxDhKmB-73" value="1 zu 1 Zuordnung" style="text;html=1;align=center;verticalAlign=middle;resizable=0;points=[];autosize=1;strokeColor=none;fillColor=none;" vertex="1" parent="WIyWlLk6GJQsqaUBKTNV-1">
          <mxGeometry x="535" y="156.5" width="110" height="20" as="geometry" />
        </mxCell>
        <mxCell id="m2FPMmRLhkhOaJxDhKmB-80" style="edgeStyle=orthogonalEdgeStyle;rounded=0;orthogonalLoop=1;jettySize=auto;html=1;" edge="1" parent="WIyWlLk6GJQsqaUBKTNV-1" source="m2FPMmRLhkhOaJxDhKmB-75" target="m2FPMmRLhkhOaJxDhKmB-73">
          <mxGeometry relative="1" as="geometry" />
        </mxCell>
        <mxCell id="m2FPMmRLhkhOaJxDhKmB-75" value="Kotierungsnummer" style="rounded=1;whiteSpace=wrap;html=1;fontSize=12;glass=0;strokeWidth=1;shadow=0;" vertex="1" parent="WIyWlLk6GJQsqaUBKTNV-1">
          <mxGeometry x="422" y="220" width="336" height="40" as="geometry" />
        </mxCell>
        <mxCell id="m2FPMmRLhkhOaJxDhKmB-86" style="edgeStyle=orthogonalEdgeStyle;rounded=0;orthogonalLoop=1;jettySize=auto;html=1;exitX=0.5;exitY=1;exitDx=0;exitDy=0;" edge="1" parent="WIyWlLk6GJQsqaUBKTNV-1" source="m2FPMmRLhkhOaJxDhKmB-21" target="m2FPMmRLhkhOaJxDhKmB-21">
          <mxGeometry relative="1" as="geometry" />
        </mxCell>
        <mxCell id="m2FPMmRLhkhOaJxDhKmB-91" style="edgeStyle=orthogonalEdgeStyle;rounded=0;orthogonalLoop=1;jettySize=auto;html=1;entryX=0.25;entryY=1;entryDx=0;entryDy=0;" edge="1" parent="WIyWlLk6GJQsqaUBKTNV-1" source="m2FPMmRLhkhOaJxDhKmB-89" target="m2FPMmRLhkhOaJxDhKmB-24">
          <mxGeometry relative="1" as="geometry">
            <mxPoint x="560" y="420" as="targetPoint" />
          </mxGeometry>
        </mxCell>
        <mxCell id="m2FPMmRLhkhOaJxDhKmB-89" value="Pro Tag 10h" style="rhombus;whiteSpace=wrap;html=1;shadow=0;fontFamily=Helvetica;fontSize=12;align=center;strokeWidth=1;spacing=6;spacingTop=-4;" vertex="1" parent="WIyWlLk6GJQsqaUBKTNV-1">
          <mxGeometry x="400" y="460" width="100" height="80" as="geometry" />
        </mxCell>
        <mxCell id="m2FPMmRLhkhOaJxDhKmB-92" value="Rest" style="rhombus;whiteSpace=wrap;html=1;shadow=0;fontFamily=Helvetica;fontSize=12;align=center;strokeWidth=1;spacing=6;spacingTop=-4;" vertex="1" parent="WIyWlLk6GJQsqaUBKTNV-1">
          <mxGeometry x="522" y="440" width="80" height="30" as="geometry" />
        </mxCell>
        <mxCell id="m2FPMmRLhkhOaJxDhKmB-93" value="Pro Tag 10h" style="rhombus;whiteSpace=wrap;html=1;shadow=0;fontFamily=Helvetica;fontSize=12;align=center;strokeWidth=1;spacing=6;spacingTop=-4;" vertex="1" parent="WIyWlLk6GJQsqaUBKTNV-1">
          <mxGeometry x="110" y="470" width="100" height="80" as="geometry" />
        </mxCell>
        <mxCell id="m2FPMmRLhkhOaJxDhKmB-95" style="edgeStyle=orthogonalEdgeStyle;rounded=0;orthogonalLoop=1;jettySize=auto;html=1;entryX=0.5;entryY=0;entryDx=0;entryDy=0;" edge="1" parent="WIyWlLk6GJQsqaUBKTNV-1" target="m2FPMmRLhkhOaJxDhKmB-97">
          <mxGeometry relative="1" as="geometry">
            <mxPoint x="620" y="410" as="sourcePoint" />
          </mxGeometry>
        </mxCell>
        <mxCell id="m2FPMmRLhkhOaJxDhKmB-96" style="edgeStyle=orthogonalEdgeStyle;rounded=0;orthogonalLoop=1;jettySize=auto;html=1;entryX=0.25;entryY=1;entryDx=0;entryDy=0;" edge="1" parent="WIyWlLk6GJQsqaUBKTNV-1">
          <mxGeometry relative="1" as="geometry">
            <mxPoint x="710" y="410" as="targetPoint" />
            <mxPoint x="650" y="500" as="sourcePoint" />
          </mxGeometry>
        </mxCell>
        <mxCell id="m2FPMmRLhkhOaJxDhKmB-97" value="Pro Tag 10h" style="rhombus;whiteSpace=wrap;html=1;shadow=0;fontFamily=Helvetica;fontSize=12;align=center;strokeWidth=1;spacing=6;spacingTop=-4;" vertex="1" parent="WIyWlLk6GJQsqaUBKTNV-1">
          <mxGeometry x="570" y="460" width="100" height="80" as="geometry" />
        </mxCell>
        <mxCell id="m2FPMmRLhkhOaJxDhKmB-98" value="Rest" style="rhombus;whiteSpace=wrap;html=1;shadow=0;fontFamily=Helvetica;fontSize=12;align=center;strokeWidth=1;spacing=6;spacingTop=-4;" vertex="1" parent="WIyWlLk6GJQsqaUBKTNV-1">
          <mxGeometry x="670" y="450" width="80" height="30" as="geometry" />
        </mxCell>
        <mxCell id="m2FPMmRLhkhOaJxDhKmB-103" style="edgeStyle=orthogonalEdgeStyle;rounded=0;orthogonalLoop=1;jettySize=auto;html=1;entryX=0.5;entryY=0;entryDx=0;entryDy=0;" edge="1" parent="WIyWlLk6GJQsqaUBKTNV-1" target="m2FPMmRLhkhOaJxDhKmB-105">
          <mxGeometry relative="1" as="geometry">
            <mxPoint x="780" y="410" as="sourcePoint" />
          </mxGeometry>
        </mxCell>
        <mxCell id="m2FPMmRLhkhOaJxDhKmB-104" style="edgeStyle=orthogonalEdgeStyle;rounded=0;orthogonalLoop=1;jettySize=auto;html=1;startArrow=none;" edge="1" parent="WIyWlLk6GJQsqaUBKTNV-1" source="m2FPMmRLhkhOaJxDhKmB-106">
          <mxGeometry relative="1" as="geometry">
            <mxPoint x="950" y="120" as="targetPoint" />
          </mxGeometry>
        </mxCell>
        <mxCell id="m2FPMmRLhkhOaJxDhKmB-115" style="edgeStyle=orthogonalEdgeStyle;rounded=0;orthogonalLoop=1;jettySize=auto;html=1;entryX=0.5;entryY=0;entryDx=0;entryDy=0;" edge="1" parent="WIyWlLk6GJQsqaUBKTNV-1" source="m2FPMmRLhkhOaJxDhKmB-105" target="m2FPMmRLhkhOaJxDhKmB-20">
          <mxGeometry relative="1" as="geometry" />
        </mxCell>
        <mxCell id="m2FPMmRLhkhOaJxDhKmB-105" value="Pro Tag 10h" style="rhombus;whiteSpace=wrap;html=1;shadow=0;fontFamily=Helvetica;fontSize=12;align=center;strokeWidth=1;spacing=6;spacingTop=-4;" vertex="1" parent="WIyWlLk6GJQsqaUBKTNV-1">
          <mxGeometry x="730" y="460" width="100" height="80" as="geometry" />
        </mxCell>
        <mxCell id="m2FPMmRLhkhOaJxDhKmB-106" value="Rest" style="rhombus;whiteSpace=wrap;html=1;shadow=0;fontFamily=Helvetica;fontSize=12;align=center;strokeWidth=1;spacing=6;spacingTop=-4;" vertex="1" parent="WIyWlLk6GJQsqaUBKTNV-1">
          <mxGeometry x="890" y="280" width="120" height="110" as="geometry" />
        </mxCell>
        <mxCell id="m2FPMmRLhkhOaJxDhKmB-110" value="" style="edgeStyle=orthogonalEdgeStyle;rounded=0;orthogonalLoop=1;jettySize=auto;html=1;endArrow=none;" edge="1" parent="WIyWlLk6GJQsqaUBKTNV-1" source="m2FPMmRLhkhOaJxDhKmB-105" target="m2FPMmRLhkhOaJxDhKmB-106">
          <mxGeometry relative="1" as="geometry">
            <mxPoint x="950" y="120" as="targetPoint" />
            <mxPoint x="830" y="500" as="sourcePoint" />
          </mxGeometry>
        </mxCell>
        <mxCell id="m2FPMmRLhkhOaJxDhKmB-111" value="Output" style="rounded=1;whiteSpace=wrap;html=1;fontSize=12;glass=0;strokeWidth=1;shadow=0;" vertex="1" parent="WIyWlLk6GJQsqaUBKTNV-1">
          <mxGeometry x="890" y="76.5" width="120" height="40" as="geometry" />
        </mxCell>
        <mxCell id="m2FPMmRLhkhOaJxDhKmB-113" value="Siemens Energy Drive" style="text;html=1;align=center;verticalAlign=middle;resizable=0;points=[];autosize=1;strokeColor=none;fillColor=none;" vertex="1" parent="WIyWlLk6GJQsqaUBKTNV-1">
          <mxGeometry x="1030" y="156.5" width="130" height="20" as="geometry" />
        </mxCell>
        <mxCell id="m2FPMmRLhkhOaJxDhKmB-114" value="Mitarbeiter Liste mit den Reststunden" style="text;html=1;align=center;verticalAlign=middle;resizable=0;points=[];autosize=1;strokeColor=none;fillColor=none;" vertex="1" parent="WIyWlLk6GJQsqaUBKTNV-1">
          <mxGeometry x="990" y="136.5" width="210" height="20" as="geometry" />
        </mxCell>
      </root>
    </mxGraphModel>
  </diagram>
</mxfile>
